<svg width="12" height="12" viewBox="0 0 12 12" fill="none" xmlns="http://www.w3.org/2000/svg">
<path d="M11 0.923077H9.5V0.461538C9.5 0.339131 9.44732 0.221737 9.35355 0.135181C9.25979 0.0486262 9.13261 0 9 0C8.86739 0 8.74021 0.0486262 8.64645 0.135181C8.55268 0.221737 8.5 0.339131 8.5 0.461538V0.923077H3.5V0.461538C3.5 0.339131 3.44732 0.221737 3.35355 0.135181C3.25979 0.0486262 3.13261 0 3 0C2.86739 0 2.74021 0.0486262 2.64645 0.135181C2.55268 0.221737 2.5 0.339131 2.5 0.461538V0.923077H1C0.734784 0.923077 0.48043 1.02033 0.292893 1.19344C0.105357 1.36655 0 1.60134 0 1.84615V11.0769C0 11.3217 0.105357 11.5565 0.292893 11.7296C0.48043 11.9027 0.734784 12 1 12H11C11.2652 12 11.5196 11.9027 11.7071 11.7296C11.8946 11.5565 12 11.3217 12 11.0769V1.84615C12 1.60134 11.8946 1.36655 11.7071 1.19344C11.5196 1.02033 11.2652 0.923077 11 0.923077ZM2.5 1.84615V2.30769C2.5 2.4301 2.55268 2.54749 2.64645 2.63405C2.74021 2.7206 2.86739 2.76923 3 2.76923C3.13261 2.76923 3.25979 2.7206 3.35355 2.63405C3.44732 2.54749 3.5 2.4301 3.5 2.30769V1.84615H8.5V2.30769C8.5 2.4301 8.55268 2.54749 8.64645 2.63405C8.74021 2.7206 8.86739 2.76923 9 2.76923C9.13261 2.76923 9.25979 2.7206 9.35355 2.63405C9.44732 2.54749 9.5 2.4301 9.5 2.30769V1.84615H11V3.69231H1V1.84615H2.5ZM11 11.0769H1V4.61538H11V11.0769Z" fill="black"/>
</svg>
