<svg width="10" height="12" viewBox="0 0 10 12" fill="none" xmlns="http://www.w3.org/2000/svg">
<path d="M4.99998 2.57145C4.57616 2.57145 4.16185 2.69713 3.80946 2.93259C3.45706 3.16806 3.1824 3.50273 3.02022 3.89429C2.85803 4.28585 2.81559 4.71671 2.89827 5.13239C2.98096 5.54807 3.18505 5.92989 3.48473 6.22958C3.78442 6.52926 4.16624 6.73335 4.58192 6.81604C4.9976 6.89872 5.42846 6.85628 5.82002 6.69409C6.21158 6.53191 6.54625 6.25725 6.78172 5.90485C7.01718 5.55246 7.14286 5.13815 7.14286 4.71433C7.14286 4.14601 6.91709 3.60096 6.51522 3.19909C6.11335 2.79722 5.5683 2.57145 4.99998 2.57145ZM4.99998 6.00006C4.74568 6.00006 4.4971 5.92465 4.28567 5.78338C4.07423 5.6421 3.90943 5.4413 3.81212 5.20636C3.71481 4.97142 3.68935 4.71291 3.73896 4.4635C3.78857 4.21409 3.91102 3.985 4.09083 3.80519C4.27064 3.62537 4.49974 3.50292 4.74914 3.45331C4.99855 3.4037 5.25707 3.42916 5.492 3.52648C5.72694 3.62379 5.92774 3.78858 6.06902 4.00002C6.2103 4.21146 6.2857 4.46004 6.2857 4.71433C6.2857 5.05533 6.15024 5.38236 5.90912 5.62348C5.668 5.8646 5.34097 6.00006 4.99998 6.00006ZM4.99998 0C3.75009 0.00141791 2.55181 0.498561 1.66801 1.38236C0.784205 2.26616 0.287062 3.46445 0.285645 4.71433C0.285645 6.39649 1.06297 8.17937 2.53567 9.87064C3.1974 10.6349 3.94217 11.323 4.75623 11.9224C4.82829 11.9729 4.91414 12 5.00212 12C5.0901 12 5.17596 11.9729 5.24802 11.9224C6.06057 11.3228 6.8039 10.6346 7.46429 9.87064C8.93484 8.17937 9.71431 6.39649 9.71431 4.71433C9.71289 3.46445 9.21575 2.26616 8.33195 1.38236C7.44815 0.498561 6.24986 0.00141791 4.99998 0ZM4.99998 11.0358C4.11443 10.3394 1.1428 7.78133 1.1428 4.71433C1.1428 3.69134 1.54918 2.71026 2.27254 1.98689C2.9959 1.26353 3.97699 0.857151 4.99998 0.857151C6.02297 0.857151 7.00405 1.26353 7.72742 1.98689C8.45078 2.71026 8.85716 3.69134 8.85716 4.71433C8.85716 7.78026 5.88552 10.3394 4.99998 11.0358Z" fill="black"/>
</svg>
