<svg width="19" height="24" viewBox="0 0 19 24" fill="none" xmlns="http://www.w3.org/2000/svg">
<path d="M12.1429 6.85714C12.821 6.85714 13.4839 6.65606 14.0477 6.27933C14.6115 5.90259 15.051 5.36712 15.3105 4.74063C15.57 4.11414 15.6379 3.42477 15.5056 2.75969C15.3733 2.09461 15.0467 1.4837 14.5672 1.00421C14.0877 0.524712 13.4768 0.198173 12.8117 0.0658806C12.1467 -0.0664116 11.4573 0.00148553 10.8308 0.260986C10.2043 0.520486 9.66885 0.959935 9.29212 1.52376C8.91538 2.08759 8.7143 2.75047 8.7143 3.42857C8.7143 4.33789 9.07552 5.20996 9.7185 5.85294C10.3615 6.49592 11.2336 6.85714 12.1429 6.85714ZM12.1429 1.71429C12.4819 1.71429 12.8134 1.81483 13.0953 2.0032C13.3772 2.19156 13.5969 2.4593 13.7267 2.77254C13.8564 3.08579 13.8904 3.43047 13.8242 3.76301C13.7581 4.09555 13.5948 4.40101 13.3551 4.64076C13.1153 4.8805 12.8098 5.04377 12.4773 5.10992C12.1448 5.17606 11.8001 5.14212 11.4868 5.01237C11.1736 4.88262 10.9059 4.66289 10.7175 4.38098C10.5291 4.09907 10.4286 3.76763 10.4286 3.42857C10.4286 2.97392 10.6092 2.53788 10.9307 2.21639C11.2522 1.8949 11.6882 1.71429 12.1429 1.71429ZM19 13.7143C19 13.9416 18.9097 14.1596 18.749 14.3204C18.5882 14.4811 18.3702 14.5714 18.1429 14.5714C14.3597 14.5714 12.4697 12.6632 10.9514 11.13C10.6579 10.8332 10.3772 10.5514 10.0943 10.29L8.65537 13.5986L12.6411 16.4454C12.7521 16.5247 12.8426 16.6293 12.905 16.7506C12.9674 16.872 13 17.0064 13 17.1429V23.1429C13 23.3702 12.9097 23.5882 12.749 23.7489C12.5882 23.9097 12.3702 24 12.1429 24C11.9155 24 11.6975 23.9097 11.5368 23.7489C11.376 23.5882 11.2857 23.3702 11.2857 23.1429V17.5843L7.9568 15.2057L4.35787 23.4846C4.29126 23.6378 4.18134 23.7682 4.04162 23.8598C3.90191 23.9513 3.73848 24.0001 3.57144 24C3.45374 24.0003 3.3373 23.9758 3.22965 23.9282C3.02129 23.8376 2.85741 23.668 2.77403 23.4567C2.69066 23.2453 2.69461 23.0095 2.78501 22.8011L8.5793 9.47571C7.5818 9.29893 6.33787 9.60429 4.86144 10.395C3.68394 11.0445 2.58495 11.8271 1.58608 12.7275C1.41936 12.8768 1.20082 12.955 0.9772 12.9454C0.753575 12.9357 0.542599 12.839 0.389371 12.6758C0.236142 12.5126 0.152818 12.296 0.157209 12.0722C0.1616 11.8484 0.253358 11.6352 0.412869 11.4782C0.680726 11.2264 7.02251 5.34643 10.99 8.79107C11.4004 9.14679 11.7914 9.54107 12.1686 9.92357C13.6632 11.4321 15.0743 12.8571 18.1429 12.8571C18.3702 12.8571 18.5882 12.9474 18.749 13.1082C18.9097 13.2689 19 13.487 19 13.7143Z" fill="white"/>
</svg>
