<svg width="4" height="6" viewBox="0 0 4 6" fill="none" xmlns="http://www.w3.org/2000/svg">
<path d="M3.19294 3.19294L0.46581 5.92008C0.440472 5.94542 0.410392 5.96552 0.377286 5.97923C0.344181 5.99294 0.308698 6 0.272865 6C0.237032 6 0.20155 5.99294 0.168444 5.97923C0.135339 5.96552 0.105258 5.94542 0.0799202 5.92008C0.0545823 5.89474 0.0344833 5.86466 0.0207705 5.83156C0.00705774 5.79845 0 5.76297 0 5.72713C0 5.6913 0.00705774 5.65582 0.0207705 5.62271C0.0344833 5.58961 0.0545823 5.55953 0.0799202 5.53419L2.61445 3L0.0799202 0.46581C0.0287481 0.414638 -5.39186e-10 0.345233 0 0.272865C5.39186e-10 0.200497 0.0287481 0.131092 0.0799202 0.0799203C0.131092 0.0287482 0.200497 5.39186e-10 0.272865 0C0.345233 -5.39186e-10 0.414638 0.0287482 0.46581 0.0799203L3.19294 2.80705C3.2183 2.83238 3.23842 2.86246 3.25214 2.89557C3.26586 2.92867 3.27293 2.96416 3.27293 3C3.27293 3.03584 3.26586 3.07133 3.25214 3.10443C3.23842 3.13754 3.2183 3.16762 3.19294 3.19294Z" fill="black"/>
</svg>
