<svg width="20" height="20" viewBox="0 0 20 20" fill="none" xmlns="http://www.w3.org/2000/svg">
<path d="M13.1248 1.875V0.625C13.1248 0.45924 13.1907 0.300269 13.3079 0.183058C13.4251 0.065848 13.5841 0 13.7498 0C13.9156 0 14.0746 0.065848 14.1918 0.183058C14.309 0.300269 14.3748 0.45924 14.3748 0.625V1.875C14.3748 2.04076 14.309 2.19973 14.1918 2.31694C14.0746 2.43415 13.9156 2.5 13.7498 2.5C13.5841 2.5 13.4251 2.43415 13.3079 2.31694C13.1907 2.19973 13.1248 2.04076 13.1248 1.875ZM15.924 3.20312C16.0223 3.26225 16.1351 3.29282 16.2498 3.29141C16.3571 3.29158 16.4626 3.26414 16.5562 3.21174C16.6498 3.15933 16.7283 3.08372 16.7842 2.99219L17.4092 1.96797C17.4527 1.89788 17.4819 1.81988 17.4951 1.73846C17.5083 1.65703 17.5052 1.5738 17.4861 1.49356C17.467 1.41332 17.4322 1.33766 17.3837 1.27094C17.3352 1.20422 17.274 1.14776 17.2035 1.10482C17.1331 1.06187 17.0549 1.03329 16.9734 1.02072C16.8918 1.00816 16.8086 1.01185 16.7286 1.03159C16.6485 1.05133 16.5731 1.08673 16.5067 1.13575C16.4404 1.18477 16.3844 1.24643 16.342 1.31719L15.717 2.34062C15.6737 2.41077 15.6447 2.48879 15.6316 2.5702C15.6186 2.65161 15.6218 2.7348 15.641 2.81497C15.6603 2.89514 15.6952 2.97071 15.7437 3.03733C15.7923 3.10394 15.8536 3.16029 15.924 3.20312ZM19.6303 4.18672C19.6051 4.10859 19.5648 4.03618 19.5116 3.97363C19.4585 3.91109 19.3935 3.85963 19.3204 3.82219C19.2474 3.78476 19.1677 3.76208 19.0859 3.75546C19.004 3.74884 18.9217 3.7584 18.8436 3.78359L17.6717 4.1625C17.5296 4.20792 17.4085 4.30266 17.3302 4.4296C17.2518 4.55654 17.2215 4.7073 17.2446 4.85466C17.2677 5.00202 17.3428 5.13625 17.4562 5.23311C17.5696 5.32997 17.714 5.38307 17.8631 5.38281C17.9284 5.38256 17.9932 5.37229 18.0553 5.35234L19.2272 4.97344C19.3057 4.94828 19.3784 4.90784 19.4412 4.85446C19.504 4.80108 19.5556 4.7358 19.5931 4.66239C19.6305 4.58898 19.6531 4.50888 19.6595 4.42671C19.6659 4.34454 19.656 4.26191 19.6303 4.18359V4.18672ZM17.2865 7.30703C17.9776 8.49564 18.2558 9.87952 18.0779 11.2429C17.9 12.6062 17.2759 13.8723 16.303 14.8438C15.9654 16.0235 15.288 17.0777 14.3553 17.8751C13.4226 18.6724 12.2758 19.1775 11.0579 19.3275C9.84003 19.4774 8.60496 19.2656 7.50668 18.7183C6.40841 18.171 5.49553 17.3126 4.88186 16.25L2.14748 11.5133C1.98053 11.2237 1.88763 10.8974 1.877 10.5633C1.86638 10.2292 1.93837 9.89766 2.08659 9.59805C2.2348 9.29845 2.45467 9.04006 2.72668 8.84579C2.99869 8.65152 3.31444 8.52738 3.64592 8.48437L3.33342 7.94219C3.16906 7.65749 3.07625 7.33715 3.06297 7.00868C3.04969 6.68021 3.11633 6.35343 3.25717 6.05639C3.398 5.75935 3.60883 5.50093 3.87154 5.30332C4.13426 5.10571 4.44101 4.97481 4.76545 4.92188C4.60272 4.4738 4.60277 3.98275 4.76559 3.53471C4.92841 3.08666 5.24363 2.71015 5.65608 2.47109C6.03427 2.25354 6.47237 2.16329 6.90576 2.21365C7.33914 2.264 7.74487 2.45231 8.06311 2.75078C8.25802 2.46942 8.52088 2.24187 8.82727 2.08927C9.13365 1.93668 9.47363 1.86398 9.81563 1.87793C10.1576 1.89188 10.4906 1.99203 10.7835 2.16908C11.0764 2.34612 11.3199 2.59432 11.4912 2.89062L12.4287 4.51484C12.6317 4.24905 12.8972 4.03749 13.2016 3.89894C13.506 3.76039 13.8398 3.69914 14.1736 3.72063C14.5073 3.74212 14.8306 3.84567 15.1147 4.02211C15.3988 4.19855 15.635 4.44241 15.8022 4.73203L17.2865 7.30703ZM9.05608 4.29688L9.51936 5.09922C9.67405 5.24049 9.80583 5.40496 9.90998 5.58672L10.8475 7.20781C11.1556 6.80763 11.6008 6.5355 12.0975 6.44375L10.4092 3.51562C10.3056 3.33619 10.135 3.20526 9.93483 3.15164C9.73469 3.09802 9.52145 3.12609 9.34202 3.22969C9.16258 3.33329 9.03165 3.50393 8.97803 3.70406C8.92441 3.9042 8.95248 4.11744 9.05608 4.29688ZM5.99514 4.62109L6.45842 5.42422L6.48342 5.44688C6.63499 5.22742 6.82841 5.04005 7.05257 4.89553C7.27673 4.751 7.52722 4.65217 7.78967 4.60469L7.34826 3.83984C7.27102 3.70601 7.15583 3.5981 7.01725 3.52974C6.87867 3.46138 6.72294 3.43565 6.56973 3.4558C6.41653 3.47596 6.27275 3.54109 6.15657 3.64296C6.04038 3.74483 5.95702 3.87887 5.91701 4.02813C5.89011 4.12721 5.88316 4.23066 5.89657 4.33245C5.90998 4.43424 5.94349 4.53236 5.99514 4.62109ZM15.124 14.4195C15.2957 13.7854 15.3398 13.1235 15.254 12.4722C15.1682 11.8209 14.9541 11.193 14.624 10.625L13.1397 8.05391C13.0387 7.88083 12.8751 7.75316 12.6827 7.69728C12.4903 7.6414 12.2837 7.6616 12.1058 7.75368C11.9278 7.84577 11.7921 8.00271 11.7265 8.19207C11.661 8.38142 11.6707 8.58871 11.7537 8.77109L12.6459 10.3125C12.7288 10.4562 12.7512 10.6269 12.7082 10.7871C12.6652 10.9473 12.5603 11.0839 12.4166 11.1668C12.2729 11.2497 12.1022 11.2721 11.942 11.2291C11.7818 11.1861 11.6452 11.0812 11.5623 10.9375L8.82795 6.21328C8.72068 6.04341 8.55208 5.9214 8.3572 5.87259C8.16231 5.82378 7.95611 5.85193 7.78143 5.95119C7.60676 6.05044 7.47703 6.21317 7.41921 6.40558C7.36138 6.59798 7.3799 6.80527 7.47092 6.98438L9.39514 10.3125C9.43877 10.3836 9.46772 10.4628 9.48026 10.5453C9.4928 10.6278 9.48869 10.712 9.46817 10.7929C9.44765 10.8738 9.41113 10.9498 9.36077 11.0164C9.31041 11.0829 9.24724 11.1387 9.17496 11.1805C9.10269 11.2222 9.02279 11.249 8.93998 11.2594C8.85716 11.2698 8.77311 11.2635 8.69278 11.2408C8.61245 11.2182 8.53747 11.1797 8.47226 11.1276C8.40705 11.0755 8.35294 11.0108 8.31311 10.9375L5.76858 6.53594C5.71765 6.44637 5.64952 6.36776 5.56809 6.30463C5.48666 6.24151 5.39355 6.19511 5.29412 6.16812C5.19469 6.14112 5.0909 6.13406 4.98872 6.14734C4.88655 6.16062 4.78802 6.19398 4.69879 6.2455C4.60956 6.29701 4.53141 6.36567 4.46882 6.44752C4.40624 6.52936 4.36046 6.62278 4.33412 6.72239C4.30779 6.82199 4.30142 6.92583 4.31538 7.02791C4.32933 7.12999 4.36334 7.2283 4.41545 7.31719L7.22795 12.1891C7.26899 12.2602 7.29562 12.3386 7.30633 12.42C7.31703 12.5014 7.31161 12.5841 7.29035 12.6634C7.26909 12.7427 7.23243 12.817 7.18245 12.8822C7.13246 12.9473 7.07014 13.0019 6.99905 13.043C6.92795 13.084 6.84946 13.1106 6.76807 13.1213C6.68668 13.1321 6.60398 13.1266 6.52469 13.1054C6.44539 13.0841 6.37106 13.0474 6.30594 12.9975C6.24082 12.9475 6.18618 12.8852 6.14514 12.8141L4.58264 10.1078C4.4783 9.92984 4.30781 9.80036 4.10836 9.74763C3.90891 9.6949 3.6967 9.72319 3.51803 9.82635C3.33937 9.9295 3.20876 10.0991 3.15471 10.2982C3.10066 10.4973 3.12755 10.7097 3.22951 10.8891L5.96389 15.6258C6.45832 16.4823 7.19567 17.173 8.08267 17.6105C8.96967 18.0479 9.96647 18.2125 10.947 18.0833C11.9276 17.9542 12.8478 17.5372 13.5913 16.8851C14.3348 16.2329 14.8682 15.3749 15.124 14.4195ZM16.2037 7.92891L14.7194 5.35781C14.615 5.17984 14.4445 5.05036 14.2451 4.99763C14.0456 4.9449 13.8334 4.97319 13.6548 5.07635C13.4761 5.1795 13.3455 5.34914 13.2914 5.54823C13.2374 5.74733 13.2643 5.95972 13.3662 6.13906L13.828 6.93984C13.9826 7.08176 14.1144 7.24672 14.2186 7.42891L15.703 10C16.12 10.7208 16.3891 11.5176 16.4944 12.3438C16.7889 11.6351 16.916 10.8681 16.8656 10.1023C16.8152 9.33657 16.5887 8.59279 16.2037 7.92891Z" fill="black"/>
</svg>
