<svg width="55" height="32" viewBox="0 0 55 32" fill="none" xmlns="http://www.w3.org/2000/svg">
<g clip-path="url(#clip0_132_457)">
<path d="M1.92956 17.5562C1.43599 17.5562 1.01646 17.3999 0.670958 17.0874C0.32546 16.7748 0.15271 16.3799 0.15271 15.9028C0.15271 15.4257 0.32546 15.0308 0.670958 14.7182C1.01646 14.4056 1.43599 14.2493 1.92956 14.2493C2.42312 14.2493 2.83444 14.4056 3.16348 14.7182C3.50898 15.0308 3.68173 15.4257 3.68173 15.9028C3.68173 16.3799 3.50898 16.7748 3.16348 17.0874C2.83444 17.3999 2.42312 17.5562 1.92956 17.5562ZM0.695637 20.8632C0.695637 20.2709 0.893065 19.8431 1.28792 19.5799C1.69923 19.3166 2.31619 19.185 3.13881 19.185V30.2904C3.13881 30.8662 2.93316 31.2939 2.52184 31.5736C2.12699 31.8369 1.51825 31.9685 0.695637 31.9685V20.8632Z" fill="black"/>
<path d="M8.30617 31.7464C7.92776 31.7464 7.60696 31.6312 7.34371 31.4009C7.08048 31.1541 6.94885 30.858 6.94885 30.5124V15.7054C6.94885 15.3434 7.07225 15.0473 7.31903 14.8169C7.58228 14.5866 7.91132 14.4714 8.30617 14.4714H13.9822C15.3971 14.4714 16.6475 14.7429 17.7334 15.2858C18.8357 15.8123 19.683 16.5609 20.2752 17.5316C20.884 18.5022 21.1884 19.6128 21.1884 20.8632V25.3053C21.1884 26.5557 20.884 27.6744 20.2752 28.6616C19.6665 29.6323 18.811 30.3891 17.7087 30.932C16.6228 31.4749 15.3807 31.7464 13.9822 31.7464H8.30617ZM13.7354 29.4513C15.2655 29.4513 16.4501 29.0975 17.2892 28.3901C18.1282 27.6662 18.5478 26.6462 18.5478 25.33V20.8138C18.5478 19.5305 18.1282 18.5352 17.2892 17.8277C16.4501 17.1203 15.2655 16.7665 13.7354 16.7665H9.61415V29.4513H13.7354Z" fill="black"/>
<path d="M24.6499 16.347C24.6499 15.6725 24.8801 15.1542 25.3409 14.7923C25.8015 14.4303 26.4596 14.2493 27.3151 14.2493V29.8708C27.3151 30.5454 27.0846 31.0636 26.6241 31.4256C26.1635 31.7875 25.5053 31.9685 24.6499 31.9685V16.347Z" fill="black"/>
<path d="M35.9347 31.9685C34.8983 31.9685 33.9687 31.7793 33.1459 31.4008C32.3234 31.0225 31.6734 30.5042 31.1965 29.8461C30.7357 29.1716 30.5055 28.423 30.5055 27.6004V23.7258C30.5055 22.8868 30.7357 22.1218 31.1965 21.4307C31.6571 20.7398 32.2987 20.1968 33.1214 19.802C33.944 19.3907 34.8817 19.185 35.9347 19.185C36.9876 19.185 37.9254 19.3907 38.7479 19.802C39.5707 20.1968 40.2123 20.7398 40.6729 21.4307C41.15 22.1218 41.3886 22.8868 41.3886 23.7258V27.6004C41.3886 28.423 41.15 29.1716 40.6729 29.8461C40.2123 30.5042 39.5623 31.0225 38.7234 31.4008C37.9007 31.7793 36.9711 31.9685 35.9347 31.9685ZM35.9347 29.8461C36.8724 29.8461 37.6129 29.6322 38.1558 29.2045C38.6987 28.7602 38.9702 28.1762 38.9702 27.4523V23.8246C38.9702 23.0678 38.6903 22.459 38.1311 21.9984C37.5882 21.5377 36.8561 21.3074 35.9347 21.3074C35.0133 21.3074 34.273 21.5377 33.7136 21.9984C33.1707 22.459 32.8992 23.0678 32.8992 23.8246V27.4523C32.8992 28.1762 33.1707 28.7602 33.7136 29.2045C34.2565 29.6322 34.9969 29.8461 35.9347 29.8461Z" fill="black"/>
<path d="M45.7991 16.7912H39.8022C39.8022 15.2447 40.518 14.4714 41.9492 14.4714H54.4119C54.4119 15.2282 54.2309 15.8041 53.8689 16.1989C53.507 16.5938 52.9722 16.7912 52.2649 16.7912H48.4397V29.8708C48.4397 30.5454 48.2093 31.0636 47.7487 31.4256C47.3045 31.7875 46.6547 31.9685 45.7991 31.9685V16.7912Z" fill="black"/>
</g>
<path fill-rule="evenodd" clip-rule="evenodd" d="M36.3405 5.17092C35.9959 5.55586 35.4045 5.58856 35.0196 5.24396C32.62 3.09581 29.5139 1.90561 26.2932 1.90015C23.0725 1.89469 19.9624 3.07435 17.5555 5.21436C17.1694 5.55765 16.5781 5.52294 16.2348 5.13683C15.8915 4.75073 15.9262 4.15943 16.3124 3.81614C19.0626 1.37088 22.6163 0.0229461 26.2964 0.0291852C29.9764 0.0354242 33.5256 1.3954 36.2675 3.84997C36.6524 4.19457 36.6851 4.78598 36.3405 5.17092ZM33.6729 8.47299C33.3195 8.84983 32.7274 8.8688 32.3506 8.51536C30.7071 6.9739 28.5394 6.11429 26.2861 6.11047C24.0328 6.10665 21.8622 6.9589 20.2134 8.49479C19.8354 8.84695 19.2434 8.82597 18.8913 8.44793C18.5391 8.06989 18.5601 7.47795 18.9381 7.12579C20.934 5.26656 23.5616 4.23489 26.2892 4.23951C29.0169 4.24414 31.641 5.28471 33.6305 7.15069C34.0074 7.50413 34.0263 8.09614 33.6729 8.47299ZM30.7037 11.4306C30.3599 11.8162 29.7686 11.8502 29.3829 11.5064C28.5281 10.7443 27.4235 10.3224 26.2783 10.3204C25.1332 10.3185 24.0271 10.7367 23.1698 11.4958C22.7829 11.8383 22.1917 11.8024 21.8492 11.4156C21.5067 11.0287 21.5427 10.4375 21.9295 10.095C23.1298 9.03227 24.6783 8.44677 26.2815 8.44949C27.8847 8.4522 29.4312 9.04295 30.6279 10.1098C31.0136 10.4536 31.0475 11.0449 30.7037 11.4306Z" fill="#2B4162"/>
<defs>
<clipPath id="clip0_132_457">
<rect width="54.428" height="17.9159" fill="white" transform="translate(0.111328 14.0723)"/>
</clipPath>
</defs>
</svg>
