<svg width="24" height="14" viewBox="0 0 24 14" fill="none" xmlns="http://www.w3.org/2000/svg">
<g clip-path="url(#clip0_132_448)">
<path d="M0.796042 7.68136C0.579946 7.68136 0.396265 7.61293 0.244998 7.47608C0.0937306 7.33921 0.0180969 7.16634 0.0180969 6.95744C0.0180969 6.74855 0.0937306 6.57567 0.244998 6.43881C0.396265 6.30195 0.579946 6.23352 0.796042 6.23352C1.01213 6.23352 1.19222 6.30195 1.33628 6.43881C1.48755 6.57567 1.56318 6.74855 1.56318 6.95744C1.56318 7.16634 1.48755 7.33921 1.33628 7.47608C1.19222 7.61293 1.01213 7.68136 0.796042 7.68136ZM0.255802 9.12921C0.255802 8.86989 0.342241 8.68261 0.515117 8.56735C0.695197 8.45211 0.965317 8.39448 1.32548 8.39448V13.2566C1.32548 13.5088 1.23544 13.696 1.05536 13.8185C0.882481 13.9337 0.615962 13.9914 0.255802 13.9914V9.12921Z" fill="black"/>
<path d="M3.58789 13.8941C3.42221 13.8941 3.28175 13.8437 3.1665 13.7428C3.05125 13.6348 2.99362 13.5051 2.99362 13.3539V6.87099C2.99362 6.71252 3.04765 6.58286 3.15569 6.48202C3.27095 6.38117 3.41501 6.33075 3.58789 6.33075H6.07299C6.69247 6.33075 7.23992 6.4496 7.71532 6.68731C8.19793 6.91781 8.5689 7.24556 8.82821 7.67054C9.09474 8.09553 9.228 8.58175 9.228 9.1292V11.0741C9.228 11.6215 9.09474 12.1113 8.82821 12.5435C8.5617 12.9685 8.18713 13.2998 7.70452 13.5376C7.2291 13.7753 6.68527 13.8941 6.07299 13.8941H3.58789ZM5.96494 12.8893C6.63485 12.8893 7.15347 12.7344 7.52084 12.4247C7.8882 12.1077 8.07188 11.6611 8.07188 11.0849V9.10758C8.07188 8.54573 7.8882 8.10994 7.52084 7.8002C7.15347 7.49046 6.63485 7.3356 5.96494 7.3356H4.16055V12.8893H5.96494Z" fill="black"/>
<path d="M10.7436 7.15193C10.7436 6.8566 10.8443 6.6297 11.0461 6.47123C11.2478 6.31276 11.5359 6.23352 11.9104 6.23352V13.073C11.9104 13.3683 11.8095 13.5952 11.6079 13.7537C11.4062 13.9121 11.1181 13.9914 10.7436 13.9914V7.15193Z" fill="black"/>
<path d="M15.6843 13.9914C15.2305 13.9914 14.8235 13.9085 14.4633 13.7428C14.1032 13.5772 13.8186 13.3503 13.6098 13.0621C13.408 12.7668 13.3073 12.4391 13.3073 12.0789V10.3826C13.3073 10.0152 13.408 9.68025 13.6098 9.37771C13.8115 9.07518 14.0923 8.83747 14.4526 8.66459C14.8127 8.48452 15.2233 8.39447 15.6843 8.39447C16.1453 8.39447 16.5559 8.48452 16.916 8.66459C17.2762 8.83747 17.5571 9.07518 17.7588 9.37771C17.9677 9.68025 18.0721 10.0152 18.0721 10.3826V12.0789C18.0721 12.4391 17.9677 12.7668 17.7588 13.0621C17.5571 13.3503 17.2725 13.5772 16.9053 13.7428C16.545 13.9085 16.138 13.9914 15.6843 13.9914ZM15.6843 13.0621C16.0948 13.0621 16.419 12.9685 16.6567 12.7812C16.8944 12.5867 17.0133 12.331 17.0133 12.0141V10.4258C17.0133 10.0944 16.8908 9.82791 16.6459 9.62622C16.4082 9.42453 16.0877 9.32368 15.6843 9.32368C15.2809 9.32368 14.9568 9.42453 14.7118 9.62622C14.4741 9.82791 14.3553 10.0944 14.3553 10.4258V12.0141C14.3553 12.331 14.4741 12.5867 14.7118 12.7812C14.9495 12.9685 15.2737 13.0621 15.6843 13.0621Z" fill="black"/>
<path d="M20.0031 7.3464H17.3776C17.3776 6.6693 17.691 6.33075 18.3176 6.33075H23.774C23.774 6.6621 23.6948 6.91421 23.5363 7.08709C23.3778 7.25997 23.1437 7.3464 22.834 7.3464H21.1593V13.0729C21.1593 13.3683 21.0584 13.5952 20.8567 13.7536C20.6622 13.9121 20.3778 13.9914 20.0031 13.9914V7.3464Z" fill="black"/>
</g>
<path fill-rule="evenodd" clip-rule="evenodd" d="M15.8619 2.25879C15.7111 2.42732 15.4521 2.44164 15.2836 2.29077C14.233 1.35026 12.8731 0.82916 11.463 0.826769C10.0529 0.824379 8.69123 1.34086 7.63743 2.2778C7.46839 2.42811 7.2095 2.41291 7.0592 2.24386C6.9089 2.07482 6.9241 1.81593 7.09315 1.66563C8.29725 0.595046 9.85316 0.00488908 11.4644 0.00762067C13.0756 0.0103523 14.6295 0.605781 15.83 1.68044C15.9985 1.83132 16.0128 2.09025 15.8619 2.25879ZM14.694 3.70451C14.5392 3.8695 14.28 3.8778 14.1151 3.72306C13.3955 3.04817 12.4464 2.67182 11.4599 2.67014C10.4733 2.66847 9.52298 3.04161 8.80112 3.71405C8.6356 3.86823 8.37644 3.85905 8.22225 3.69353C8.06807 3.52802 8.07726 3.26886 8.24277 3.11467C9.1166 2.30066 10.267 1.84897 11.4612 1.851C12.6555 1.85302 13.8044 2.30861 14.6754 3.12558C14.8404 3.28032 14.8487 3.53952 14.694 3.70451ZM13.394 4.9994C13.2435 5.16825 12.9846 5.18311 12.8157 5.03259C12.4415 4.69896 11.9578 4.51422 11.4565 4.51337C10.9551 4.51252 10.4709 4.69562 10.0955 5.02797C9.92612 5.17792 9.66727 5.16219 9.51732 4.99283C9.36737 4.82347 9.3831 4.56462 9.55246 4.41467C10.078 3.94937 10.756 3.69303 11.4579 3.69422C12.1598 3.69541 12.8369 3.95405 13.3608 4.42113C13.5297 4.57165 13.5445 4.83055 13.394 4.9994Z" fill="#2B4162"/>
<defs>
<clipPath id="clip0_132_448">
<rect width="23.8298" height="7.84398" fill="white" transform="translate(0 6.15601)"/>
</clipPath>
</defs>
</svg>
