<svg width="11" height="8" viewBox="0 0 11 8" fill="none" xmlns="http://www.w3.org/2000/svg">
<path d="M1.25 0.625V7.375C1.25 7.47446 1.21049 7.56984 1.14016 7.64017C1.06984 7.71049 0.974456 7.75 0.875 7.75C0.775544 7.75 0.680161 7.71049 0.609835 7.64017C0.539509 7.56984 0.5 7.47446 0.5 7.375V0.625C0.5 0.525544 0.539509 0.430161 0.609835 0.359835C0.680161 0.289509 0.775544 0.25 0.875 0.25C0.974456 0.25 1.06984 0.289509 1.14016 0.359835C1.21049 0.430161 1.25 0.525544 1.25 0.625ZM5.1875 3.17969L4.25 3.48438V2.5C4.25 2.40054 4.21049 2.30516 4.14016 2.23484C4.06984 2.16451 3.97446 2.125 3.875 2.125C3.77554 2.125 3.68016 2.16451 3.60984 2.23484C3.53951 2.30516 3.5 2.40054 3.5 2.5V3.48438L2.5625 3.17969C2.46789 3.14861 2.36481 3.15638 2.27594 3.2013C2.18706 3.24622 2.11967 3.32461 2.08859 3.41922C2.05751 3.51383 2.06529 3.61691 2.11021 3.70578C2.15513 3.79465 2.23352 3.86204 2.32812 3.89313L3.26562 4.19734L2.68719 4.99422C2.65662 5.03394 2.63432 5.07938 2.62162 5.12786C2.60891 5.17635 2.60605 5.22688 2.61321 5.27649C2.62037 5.3261 2.6374 5.37376 2.66329 5.41668C2.68918 5.45959 2.72342 5.49688 2.76397 5.52633C2.80452 5.55579 2.85056 5.57682 2.89938 5.58818C2.94819 5.59954 2.99879 5.60099 3.04818 5.59247C3.09757 5.58394 3.14475 5.56559 3.18692 5.53852C3.2291 5.51145 3.26543 5.47619 3.29375 5.43484L3.87219 4.63797L4.45062 5.43484C4.47895 5.47619 4.51527 5.51145 4.55745 5.53852C4.59963 5.56559 4.64681 5.58394 4.6962 5.59247C4.74559 5.60099 4.79618 5.59954 4.845 5.58818C4.89381 5.57682 4.93986 5.55579 4.98041 5.52633C5.02096 5.49688 5.05519 5.45959 5.08109 5.41668C5.10698 5.37376 5.12401 5.3261 5.13117 5.27649C5.13832 5.22688 5.13547 5.17635 5.12276 5.12786C5.11005 5.07938 5.08776 5.03394 5.05719 4.99422L4.47875 4.19734L5.41625 3.89313C5.50668 3.85949 5.58066 3.79229 5.62282 3.70551C5.66498 3.61873 5.67207 3.51903 5.64261 3.42716C5.61315 3.33528 5.54942 3.25829 5.46465 3.21221C5.37989 3.16612 5.28063 3.15447 5.1875 3.17969ZM10.1562 3.42062C10.1255 3.32688 10.0591 3.24902 9.97134 3.20392C9.8836 3.15882 9.78162 3.15012 9.6875 3.17969L8.75 3.48438V2.5C8.75 2.40054 8.71049 2.30516 8.64017 2.23484C8.56984 2.16451 8.47446 2.125 8.375 2.125C8.27554 2.125 8.18016 2.16451 8.10983 2.23484C8.03951 2.30516 8 2.40054 8 2.5V3.48438L7.0625 3.18016C7.01566 3.16492 6.96627 3.15906 6.91716 3.16291C6.86805 3.16676 6.82018 3.18025 6.77628 3.2026C6.73238 3.22495 6.69332 3.25573 6.66132 3.29318C6.62931 3.33063 6.605 3.37401 6.58977 3.42086C6.57453 3.4677 6.56867 3.51709 6.57252 3.5662C6.57637 3.61531 6.58986 3.66318 6.61221 3.70708C6.63456 3.75098 6.66534 3.79004 6.70279 3.82204C6.74024 3.85405 6.78362 3.87836 6.83047 3.89359L7.76797 4.19781L7.18953 4.99469C7.15896 5.03441 7.13667 5.07985 7.12396 5.12833C7.11125 5.17681 7.10839 5.22735 7.11555 5.27696C7.12271 5.32656 7.13974 5.37423 7.16563 5.41715C7.19153 5.46006 7.22576 5.49734 7.26631 5.5268C7.30686 5.55626 7.3529 5.57729 7.40172 5.58865C7.45054 5.6 7.50113 5.60146 7.55052 5.59293C7.59991 5.5844 7.64709 5.56606 7.68927 5.53899C7.73145 5.51192 7.76777 5.47666 7.79609 5.43531L8.37453 4.63844L8.95297 5.43531C8.98129 5.47666 9.01762 5.51192 9.05979 5.53899C9.10197 5.56606 9.14915 5.5844 9.19854 5.59293C9.24793 5.60146 9.29853 5.6 9.34734 5.58865C9.39616 5.57729 9.4422 5.55626 9.48275 5.5268C9.5233 5.49734 9.55754 5.46006 9.58343 5.41715C9.60932 5.37423 9.62635 5.32656 9.63351 5.27696C9.64067 5.22735 9.63781 5.17681 9.6251 5.12833C9.6124 5.07985 9.5901 5.03441 9.55953 4.99469L8.98109 4.19781L9.91859 3.89359C10.0127 3.86223 10.0906 3.79484 10.1351 3.7062C10.1797 3.61755 10.1873 3.51486 10.1562 3.42062Z" fill="#808080"/>
</svg>
