<svg width="12" height="13" viewBox="0 0 12 13" fill="none" xmlns="http://www.w3.org/2000/svg">
<path d="M11.7187 3.46209L9.0373 0.781258C8.94816 0.69209 8.84231 0.621356 8.72583 0.573098C8.60934 0.524839 8.48448 0.5 8.3584 0.5C8.23231 0.5 8.10745 0.524839 7.99096 0.573098C7.87448 0.621356 7.76864 0.69209 7.67949 0.781258L0.280798 8.17995C0.191265 8.26877 0.12028 8.3745 0.0719708 8.491C0.0236617 8.6075 -0.00100842 8.73244 -0.000605495 8.85856V11.54C-0.000605495 11.7946 0.100538 12.0388 0.280575 12.2188C0.460612 12.3989 0.704795 12.5 0.959406 12.5H11.0395C11.1668 12.5 11.2889 12.4494 11.3789 12.3594C11.469 12.2694 11.5195 12.1473 11.5195 12.02C11.5195 11.8927 11.469 11.7706 11.3789 11.6806C11.2889 11.5906 11.1668 11.54 11.0395 11.54H4.99865L11.7187 4.81991C11.8079 4.73076 11.8786 4.62492 11.9269 4.50843C11.9752 4.39194 12 4.26709 12 4.141C12 4.01491 11.9752 3.89006 11.9269 3.77357C11.8786 3.65708 11.8079 3.55124 11.7187 3.46209ZM3.64084 11.54H0.959406V8.85856L6.23947 3.57849L8.9209 6.25992L3.64084 11.54ZM9.59951 5.58132L6.91868 2.89988L8.3587 1.45987L11.0395 4.1413L9.59951 5.58132Z" fill="black"/>
</svg>
