<svg width="16" height="17" viewBox="0 0 16 17" fill="none" xmlns="http://www.w3.org/2000/svg">
<path d="M15.6254 4.44945L12.0502 0.875011C11.9313 0.75612 11.7902 0.661808 11.6349 0.597463C11.4795 0.533118 11.3131 0.5 11.1449 0.5C10.9768 0.5 10.8104 0.533118 10.655 0.597463C10.4997 0.661808 10.3586 0.75612 10.2397 0.875011L0.374814 10.7399C0.255436 10.8584 0.16079 10.9993 0.0963782 11.1547C0.0319659 11.31 -0.000927486 11.4766 -0.000390252 11.6447V15.22C-0.000390252 15.5595 0.134468 15.885 0.374518 16.1251C0.614567 16.3651 0.940144 16.5 1.27963 16.5H14.7198C14.8895 16.5 15.0523 16.4326 15.1723 16.3125C15.2924 16.1925 15.3598 16.0297 15.3598 15.86C15.3598 15.6903 15.2924 15.5275 15.1723 15.4074C15.0523 15.2874 14.8895 15.22 14.7198 15.22H6.66529L15.6254 6.25988C15.7443 6.14101 15.8386 5.99989 15.9029 5.84457C15.9673 5.68926 16.0004 5.52278 16.0004 5.35466C16.0004 5.18655 15.9673 5.02007 15.9029 4.86476C15.8386 4.70944 15.7443 4.56832 15.6254 4.44945ZM4.85487 15.22H1.27963V11.6447L8.31971 4.60466L11.895 8.1799L4.85487 15.22ZM12.7998 7.27509L9.22532 3.69985L11.1453 1.77982L14.7198 5.35507L12.7998 7.27509Z" fill="black"/>
</svg>
