<svg width="10" height="13" viewBox="0 0 10 13" fill="none" xmlns="http://www.w3.org/2000/svg">
<path d="M5.00001 3.07145C4.57619 3.07145 4.16188 3.19713 3.80949 3.43259C3.45709 3.66806 3.18244 4.00273 3.02025 4.39429C2.85806 4.78585 2.81562 5.21671 2.8983 5.63239C2.98099 6.04807 3.18508 6.42989 3.48476 6.72958C3.78445 7.02926 4.16628 7.23335 4.58195 7.31604C4.99763 7.39872 5.42849 7.35628 5.82005 7.19409C6.21161 7.03191 6.54628 6.75725 6.78175 6.40485C7.01721 6.05246 7.14289 5.63815 7.14289 5.21433C7.14289 4.64601 6.91712 4.10096 6.51525 3.69909C6.11338 3.29722 5.56833 3.07145 5.00001 3.07145ZM5.00001 6.50006C4.74572 6.50006 4.49713 6.42465 4.2857 6.28338C4.07426 6.1421 3.90946 5.9413 3.81215 5.70636C3.71484 5.47142 3.68938 5.21291 3.73899 4.9635C3.7886 4.71409 3.91105 4.485 4.09086 4.30519C4.27067 4.12537 4.49977 4.00292 4.74918 3.95331C4.99858 3.9037 5.2571 3.92916 5.49203 4.02648C5.72697 4.12379 5.92777 4.28858 6.06905 4.50002C6.21033 4.71146 6.28574 4.96004 6.28574 5.21433C6.28574 5.55533 6.15028 5.88236 5.90915 6.12348C5.66803 6.3646 5.341 6.50006 5.00001 6.50006ZM5.00001 0.5C3.75012 0.501418 2.55184 0.998561 1.66804 1.88236C0.784235 2.76616 0.287093 3.96445 0.285675 5.21433C0.285675 6.89649 1.063 8.67937 2.5357 10.3706C3.19743 11.1349 3.9422 11.823 4.75626 12.4224C4.82832 12.4729 4.91417 12.5 5.00215 12.5C5.09013 12.5 5.17599 12.4729 5.24805 12.4224C6.0606 11.8228 6.80393 11.1346 7.46432 10.3706C8.93487 8.67937 9.71434 6.89649 9.71434 5.21433C9.71292 3.96445 9.21578 2.76616 8.33198 1.88236C7.44818 0.998561 6.24989 0.501418 5.00001 0.5ZM5.00001 11.5358C4.11446 10.8394 1.14283 8.28133 1.14283 5.21433C1.14283 4.19134 1.54921 3.21026 2.27257 2.48689C2.99593 1.76353 3.97702 1.35715 5.00001 1.35715C6.023 1.35715 7.00409 1.76353 7.72745 2.48689C8.45081 3.21026 8.85719 4.19134 8.85719 5.21433C8.85719 8.28026 5.88555 10.8394 5.00001 11.5358Z" fill="#333333"/>
</svg>
