<svg width="12" height="12" viewBox="0 0 12 12" fill="none" xmlns="http://www.w3.org/2000/svg">
<path d="M6.00025 0C4.81356 0 3.65352 0.351894 2.66682 1.01118C1.68013 1.67047 0.911095 2.60754 0.45697 3.7039C0.00284385 4.80025 -0.115976 6.00666 0.115535 7.17054C0.347046 8.33443 0.918491 9.40352 1.75761 10.2426C2.59672 11.0818 3.66582 11.6532 4.8297 11.8847C5.99359 12.1162 7.19999 11.9974 8.29635 11.5433C9.3927 11.0891 10.3298 10.3201 10.9891 9.33342C11.6484 8.34672 12.0002 7.18669 12.0002 6C11.9986 4.40922 11.3659 2.88407 10.241 1.75921C9.11618 0.63436 7.59103 0.0016799 6.00025 0ZM6.00025 11.0769C4.99613 11.0769 4.01455 10.7792 3.17966 10.2213C2.34476 9.66345 1.69404 8.87054 1.30978 7.94285C0.925521 7.01517 0.824981 5.99437 1.02088 5.00954C1.21677 4.02471 1.7003 3.12009 2.41032 2.41007C3.12034 1.70005 4.02496 1.21652 5.00979 1.02063C5.99461 0.824734 7.01541 0.925274 7.9431 1.30953C8.87079 1.69379 9.66369 2.34452 10.2216 3.17941C10.7794 4.01431 11.0772 4.99588 11.0772 6C11.0756 7.34601 10.5403 8.63646 9.58849 9.58824C8.63671 10.54 7.34626 11.0754 6.00025 11.0769ZM8.10255 5.61577L5.33332 3.76961C5.2638 3.72323 5.18298 3.69659 5.0995 3.69255C5.01602 3.6885 4.93301 3.7072 4.85933 3.74665C4.78565 3.7861 4.72406 3.84481 4.68114 3.91653C4.63822 3.98824 4.61558 4.07027 4.61563 4.15385V7.84615C4.61558 7.92973 4.63822 8.01175 4.68114 8.08347C4.72406 8.15518 4.78565 8.2139 4.85933 8.25335C4.93301 8.29279 5.01602 8.31149 5.0995 8.30745C5.18298 8.3034 5.2638 8.27677 5.33332 8.23038L8.10255 6.38423C8.16586 6.3421 8.21778 6.28498 8.25369 6.21794C8.2896 6.15091 8.30839 6.07604 8.30839 6C8.30839 5.92395 8.2896 5.84909 8.25369 5.78205C8.21778 5.71502 8.16586 5.6579 8.10255 5.61577ZM5.53871 6.98365V5.01923L7.01448 6L5.53871 6.98365Z" fill="black"/>
</svg>
