<svg width="10" height="12" viewBox="0 0 10 12" fill="none" xmlns="http://www.w3.org/2000/svg">
<path d="M6.28216 3.42857C6.62121 3.42857 6.95265 3.32803 7.23456 3.13966C7.51648 2.95129 7.7362 2.68356 7.86595 2.37031C7.9957 2.05707 8.02965 1.71238 7.9635 1.37985C7.89736 1.04731 7.73409 0.74185 7.49434 0.502103C7.25459 0.262356 6.94914 0.0990864 6.6166 0.0329403C6.28406 -0.0332058 5.93937 0.000742767 5.62613 0.130493C5.31288 0.260243 5.04515 0.479967 4.85678 0.76188C4.66841 1.04379 4.56787 1.37523 4.56787 1.71429C4.56787 2.16894 4.74848 2.60498 5.06997 2.92647C5.39147 3.24796 5.8275 3.42857 6.28216 3.42857ZM6.28216 0.857143C6.45168 0.857143 6.6174 0.907414 6.75836 1.0016C6.89932 1.09578 7.00918 1.22965 7.07405 1.38627C7.13893 1.54289 7.1559 1.71524 7.12283 1.88151C7.08976 2.04778 7.00812 2.2005 6.88825 2.32038C6.76838 2.44025 6.61565 2.52189 6.44938 2.55496C6.28311 2.58803 6.11077 2.57106 5.95414 2.50618C5.79752 2.44131 5.66365 2.33145 5.56947 2.19049C5.47529 2.04953 5.42501 1.88381 5.42501 1.71429C5.42501 1.48696 5.51532 1.26894 5.67607 1.10819C5.83681 0.947449 6.05483 0.857143 6.28216 0.857143ZM9.71073 6.85714C9.71073 6.97081 9.66558 7.07982 9.5852 7.16019C9.50483 7.24056 9.39582 7.28571 9.28216 7.28571C7.39055 7.28571 6.44555 6.33161 5.68644 5.565C5.53966 5.41661 5.3993 5.27571 5.25787 5.145L4.53841 6.79929L6.53126 8.22268C6.58678 8.26233 6.63202 8.31466 6.66323 8.37532C6.69445 8.43598 6.71073 8.50321 6.71073 8.57143V11.5714C6.71073 11.6851 6.66558 11.7941 6.5852 11.8745C6.50483 11.9548 6.39582 12 6.28216 12C6.16849 12 6.05948 11.9548 5.97911 11.8745C5.89874 11.7941 5.85359 11.6851 5.85359 11.5714V8.79214L4.18912 7.60286L2.38966 11.7423C2.35635 11.8189 2.30139 11.8841 2.23154 11.9299C2.16168 11.9757 2.07997 12 1.99644 12C1.93759 12.0001 1.87937 11.9879 1.82555 11.9641C1.72137 11.9188 1.63943 11.834 1.59774 11.7283C1.55605 11.6227 1.55803 11.5048 1.60323 11.4005L4.50037 4.73786C4.00162 4.64946 3.37966 4.80214 2.64144 5.1975C2.05269 5.52225 1.5032 5.91357 1.00377 6.36375C0.920402 6.43842 0.811136 6.47752 0.699324 6.47269C0.587511 6.46786 0.482024 6.41949 0.405409 6.33791C0.328795 6.25632 0.287133 6.14801 0.289328 6.03611C0.291524 5.92422 0.337403 5.81762 0.417158 5.73911C0.551087 5.61321 3.72198 2.67321 5.70573 4.39554C5.91091 4.57339 6.10644 4.77054 6.29502 4.96179C7.04234 5.71607 7.74787 6.42857 9.28216 6.42857C9.39582 6.42857 9.50483 6.47372 9.5852 6.5541C9.66558 6.63447 9.71073 6.74348 9.71073 6.85714Z" fill="black"/>
</svg>
