<svg width="12" height="12" viewBox="0 0 12 12" fill="none" xmlns="http://www.w3.org/2000/svg">
<path d="M11.8461 11.404C11.9047 11.4626 11.9377 11.5421 11.9377 11.6251C11.9377 11.708 11.9047 11.7875 11.8461 11.8461C11.7875 11.9048 11.7079 11.9377 11.625 11.9377C11.5421 11.9377 11.4626 11.9048 11.4039 11.8461L6.00001 6.44224L0.5961 11.8461C0.537462 11.9048 0.457932 11.9377 0.375006 11.9377C0.29208 11.9377 0.21255 11.9048 0.153912 11.8461C0.0952746 11.7875 0.0623322 11.708 0.0623322 11.6251C0.0623322 11.5421 0.0952743 11.4626 0.153912 11.404L5.55782 6.00005L0.153912 0.596146C0.0952743 0.537508 0.0623322 0.457978 0.0623322 0.375052C0.0623322 0.292125 0.0952743 0.212595 0.153912 0.153958C0.21255 0.0953201 0.29208 0.0623779 0.375006 0.0623779C0.457932 0.0623779 0.537462 0.0953201 0.5961 0.153958L6.00001 5.55786L11.4039 0.153958C11.4329 0.124923 11.4674 0.101892 11.5054 0.0861787C11.5433 0.0704653 11.5839 0.0623779 11.625 0.0623779C11.6661 0.0623779 11.7067 0.0704653 11.7447 0.0861787C11.7826 0.101892 11.8171 0.124923 11.8461 0.153958C11.8751 0.182992 11.8982 0.217461 11.9139 0.255397C11.9296 0.293332 11.9377 0.333991 11.9377 0.375052C11.9377 0.416113 11.9296 0.456771 11.9139 0.494707C11.8982 0.532642 11.8751 0.567111 11.8461 0.596146L6.44219 6.00005L11.8461 11.404Z" fill="black"/>
</svg>
