<svg width="10" height="13" viewBox="0 0 10 13" fill="none" xmlns="http://www.w3.org/2000/svg">
<path d="M6.28216 3.92857C6.62121 3.92857 6.95265 3.82803 7.23456 3.63966C7.51648 3.45129 7.7362 3.18356 7.86595 2.87031C7.9957 2.55707 8.02965 2.21238 7.9635 1.87985C7.89736 1.54731 7.73409 1.24185 7.49434 1.0021C7.25459 0.762356 6.94914 0.599086 6.6166 0.53294C6.28406 0.466794 5.93937 0.500743 5.62613 0.630493C5.31288 0.760243 5.04515 0.979967 4.85678 1.26188C4.66841 1.54379 4.56787 1.87523 4.56787 2.21429C4.56787 2.66894 4.74848 3.10498 5.06997 3.42647C5.39147 3.74796 5.8275 3.92857 6.28216 3.92857ZM6.28216 1.35714C6.45168 1.35714 6.6174 1.40741 6.75836 1.5016C6.89932 1.59578 7.00918 1.72965 7.07405 1.88627C7.13893 2.04289 7.1559 2.21524 7.12283 2.38151C7.08976 2.54778 7.00812 2.7005 6.88825 2.82038C6.76838 2.94025 6.61565 3.02189 6.44938 3.05496C6.28311 3.08803 6.11077 3.07106 5.95414 3.00618C5.79752 2.94131 5.66365 2.83145 5.56947 2.69049C5.47529 2.54953 5.42501 2.38381 5.42501 2.21429C5.42501 1.98696 5.51532 1.76894 5.67607 1.60819C5.83681 1.44745 6.05483 1.35714 6.28216 1.35714ZM9.71073 7.35714C9.71073 7.47081 9.66558 7.57982 9.5852 7.66019C9.50483 7.74056 9.39582 7.78571 9.28216 7.78571C7.39055 7.78571 6.44555 6.83161 5.68644 6.065C5.53966 5.91661 5.3993 5.77571 5.25787 5.645L4.53841 7.29929L6.53126 8.72268C6.58678 8.76233 6.63202 8.81466 6.66323 8.87532C6.69445 8.93598 6.71073 9.00321 6.71073 9.07143V12.0714C6.71073 12.1851 6.66558 12.2941 6.5852 12.3745C6.50483 12.4548 6.39582 12.5 6.28216 12.5C6.16849 12.5 6.05948 12.4548 5.97911 12.3745C5.89874 12.2941 5.85359 12.1851 5.85359 12.0714V9.29214L4.18912 8.10286L2.38966 12.2423C2.35635 12.3189 2.30139 12.3841 2.23154 12.4299C2.16168 12.4757 2.07997 12.5 1.99644 12.5C1.93759 12.5001 1.87937 12.4879 1.82555 12.4641C1.72137 12.4188 1.63943 12.334 1.59774 12.2283C1.55605 12.1227 1.55803 12.0048 1.60323 11.9005L4.50037 5.23786C4.00162 5.14946 3.37966 5.30214 2.64144 5.6975C2.05269 6.02225 1.5032 6.41357 1.00377 6.86375C0.920402 6.93842 0.811136 6.97752 0.699324 6.97269C0.587511 6.96786 0.482024 6.91949 0.405409 6.83791C0.328795 6.75632 0.287133 6.64801 0.289328 6.53611C0.291524 6.42422 0.337403 6.31762 0.417158 6.23911C0.551087 6.11321 3.72198 3.17321 5.70573 4.89554C5.91091 5.07339 6.10644 5.27054 6.29502 5.46179C7.04234 6.21607 7.74787 6.92857 9.28216 6.92857C9.39582 6.92857 9.50483 6.97372 9.5852 7.0541C9.66558 7.13447 9.71073 7.24348 9.71073 7.35714Z" fill="#C33E22"/>
</svg>
