<svg width="16" height="17" viewBox="0 0 16 17" fill="none" xmlns="http://www.w3.org/2000/svg">
<path d="M15.8766 15.7808C15.9556 15.8598 16 15.967 16 16.0787C16 16.1905 15.9556 16.2976 15.8766 16.3766C15.7976 16.4556 15.6905 16.5 15.5787 16.5C15.467 16.5 15.3598 16.4556 15.2808 16.3766L8 9.09577L0.719161 16.3766C0.640156 16.4556 0.533003 16.5 0.421274 16.5C0.309545 16.5 0.202393 16.4556 0.123389 16.3766C0.0443843 16.2976 2.20244e-09 16.1905 0 16.0787C-2.20244e-09 15.967 0.0443839 15.8598 0.123388 15.7808L7.40423 8.5L0.123388 1.21916C0.0443839 1.14016 0 1.033 0 0.921274C0 0.809545 0.0443839 0.702392 0.123388 0.623388C0.202392 0.544384 0.309545 0.5 0.421274 0.5C0.533003 0.5 0.640156 0.544384 0.719161 0.623388L8 7.90423L15.2808 0.623388C15.32 0.584269 15.3664 0.553238 15.4175 0.532067C15.4686 0.510896 15.5234 0.5 15.5787 0.5C15.634 0.5 15.6888 0.510896 15.7399 0.532067C15.7911 0.553238 15.8375 0.584269 15.8766 0.623388C15.9157 0.662507 15.9468 0.708948 15.9679 0.76006C15.9891 0.811171 16 0.865952 16 0.921274C16 0.976597 15.9891 1.03138 15.9679 1.08249C15.9468 1.1336 15.9157 1.18004 15.8766 1.21916L8.59577 8.5L15.8766 15.7808Z" fill="black"/>
</svg>
