<svg width="12" height="12" viewBox="0 0 12 12" fill="none" xmlns="http://www.w3.org/2000/svg">
<path d="M11.3318 3.06071C11.2272 3.11488 11.1054 3.1253 10.9931 3.08968C10.8808 3.05406 10.7873 2.97531 10.733 2.87075C10.3089 2.03286 9.66689 1.32468 8.87451 0.820616C8.82512 0.78947 8.78236 0.748902 8.74866 0.70123C8.71495 0.653557 8.69097 0.599713 8.67808 0.542771C8.66518 0.48583 8.66363 0.426906 8.67351 0.369364C8.68338 0.311822 8.7045 0.25679 8.73565 0.207408C8.76679 0.158027 8.80736 0.115263 8.85503 0.08156C8.90271 0.0478565 8.95655 0.0238728 9.01349 0.0109785C9.07043 -0.00191593 9.12936 -0.00346858 9.1869 0.00640918C9.24444 0.0162869 9.29947 0.0374016 9.34885 0.0685477C10.2723 0.659836 11.0222 1.48579 11.5217 2.46195C11.5759 2.56655 11.5863 2.68837 11.5507 2.80065C11.5151 2.91293 11.4363 3.00647 11.3318 3.06071ZM0.873367 3.1107C0.954774 3.11067 1.03461 3.08827 1.10415 3.04596C1.1737 3.00364 1.23028 2.94304 1.26773 2.87075C1.69187 2.03286 2.33386 1.32468 3.12624 0.820616C3.17562 0.78947 3.21838 0.748902 3.25209 0.70123C3.28579 0.653557 3.30977 0.599713 3.32267 0.542771C3.33556 0.48583 3.33712 0.426906 3.32724 0.369364C3.31736 0.311822 3.29625 0.25679 3.2651 0.207408C3.23395 0.158027 3.19339 0.115263 3.14571 0.08156C3.09804 0.0478565 3.0442 0.0238728 2.98725 0.0109785C2.93031 -0.00191593 2.87139 -0.00346858 2.81385 0.00640918C2.75631 0.0162869 2.70127 0.0374016 2.65189 0.0685477C1.72842 0.659836 0.978556 1.48579 0.479003 2.46195C0.44392 2.52967 0.426858 2.60528 0.429458 2.6815C0.432058 2.75772 0.454233 2.83199 0.493849 2.89716C0.533465 2.96233 0.589188 3.01621 0.655656 3.05361C0.722124 3.09101 0.797099 3.11067 0.873367 3.1107ZM11.2101 8.88397C11.2889 9.01896 11.3306 9.17233 11.3311 9.3286C11.3317 9.48487 11.291 9.63852 11.2132 9.77406C11.1354 9.90959 11.0232 10.0222 10.888 10.1006C10.7528 10.1789 10.5993 10.2202 10.4431 10.2204H8.17687C8.07489 10.7226 7.8024 11.1742 7.40559 11.4985C7.00878 11.8228 6.51204 12 5.99954 12C5.48704 12 4.9903 11.8228 4.59349 11.4985C4.19668 11.1742 3.92419 10.7226 3.82221 10.2204H1.556C1.39983 10.2201 1.24649 10.1786 1.11143 10.1002C0.976379 10.0217 0.864379 9.90908 0.786717 9.77358C0.709055 9.63808 0.668472 9.4845 0.669058 9.32832C0.669643 9.17215 0.711375 9.01888 0.79005 8.88397C1.2905 8.02025 1.556 6.79217 1.556 5.33247C1.556 4.15397 2.02416 3.02374 2.85749 2.19042C3.69081 1.35709 4.82104 0.888935 5.99954 0.888935C7.17804 0.888935 8.30827 1.35709 9.14159 2.19042C9.97492 3.02374 10.4431 4.15397 10.4431 5.33247C10.4431 6.79162 10.7086 8.0197 11.2101 8.88397ZM7.25595 10.2204H4.74313C4.83519 10.48 5.00542 10.7047 5.2304 10.8636C5.45539 11.0226 5.72408 11.1079 5.99954 11.1079C6.275 11.1079 6.54369 11.0226 6.76868 10.8636C6.99366 10.7047 7.16389 10.48 7.25595 10.2204ZM10.4431 9.33165C9.85208 8.31686 9.55437 6.97158 9.55437 5.33247C9.55437 4.38967 9.17984 3.48549 8.51318 2.81883C7.84652 2.15217 6.94234 1.77764 5.99954 1.77764C5.05674 1.77764 4.15256 2.15217 3.4859 2.81883C2.81924 3.48549 2.44471 4.38967 2.44471 5.33247C2.44471 6.97214 2.14588 8.31742 1.556 9.33165H10.4431Z" fill="black"/>
</svg>
