<svg width="24" height="14" viewBox="0 0 24 14" fill="none"
    xmlns="http://www.w3.org/2000/svg">
    <style>
    @media (prefers-color-scheme: dark) {
      g path, path, defs clipPath rect { fill: #f0f0f0 }
    }
    </style>
    <g clip-path="url(#clip0_132_430)">
        <path d="M0.796012 7.68138C0.579916 7.68138 0.396235 7.61294 0.244967 7.47609C0.0937 7.33923 0.0180664 7.16635 0.0180664 6.95746C0.0180664 6.74856 0.0937 6.57569 0.244967 6.43883C0.396235 6.30197 0.579916 6.23354 0.796012 6.23354C1.0121 6.23354 1.19219 6.30197 1.33625 6.43883C1.48752 6.57569 1.56315 6.74856 1.56315 6.95746C1.56315 7.16635 1.48752 7.33923 1.33625 7.47609C1.19219 7.61294 1.0121 7.68138 0.796012 7.68138ZM0.255772 9.12923C0.255772 8.86991 0.342211 8.68263 0.515087 8.56737C0.695167 8.45212 0.965287 8.39449 1.32545 8.39449V13.2567C1.32545 13.5088 1.23541 13.696 1.05533 13.8185C0.88245 13.9338 0.615932 13.9914 0.255772 13.9914V9.12923Z" fill="black"/>
        <path d="M3.58792 13.8941C3.42224 13.8941 3.28178 13.8437 3.16653 13.7429C3.05128 13.6348 2.99365 13.5052 2.99365 13.3539V6.87102C2.99365 6.71255 3.04768 6.58289 3.15572 6.48205C3.27098 6.3812 3.41504 6.33078 3.58792 6.33078H6.07302C6.6925 6.33078 7.23995 6.44963 7.71535 6.68734C8.19796 6.91784 8.56893 7.24559 8.82824 7.67057C9.09477 8.09556 9.22803 8.58178 9.22803 9.12923V11.0741C9.22803 11.6215 9.09477 12.1113 8.82824 12.5435C8.56173 12.9685 8.18716 13.2999 7.70455 13.5376C7.22913 13.7753 6.6853 13.8941 6.07302 13.8941H3.58792ZM5.96497 12.8893C6.63488 12.8893 7.1535 12.7344 7.52087 12.4247C7.88823 12.1077 8.07191 11.6611 8.07191 11.0849V9.10761C8.07191 8.54576 7.88823 8.10997 7.52087 7.80023C7.1535 7.49049 6.63488 7.33563 5.96497 7.33563H4.16058V12.8893H5.96497Z" fill="black"/>
        <path d="M10.7435 7.15195C10.7435 6.85661 10.8443 6.62971 11.0461 6.47124C11.2477 6.31277 11.5359 6.23354 11.9104 6.23354V13.073C11.9104 13.3683 11.8095 13.5952 11.6079 13.7537C11.4062 13.9121 11.1181 13.9914 10.7435 13.9914V7.15195Z" fill="black"/>
        <path d="M15.6843 13.9914C15.2305 13.9914 14.8235 13.9086 14.4633 13.7429C14.1032 13.5772 13.8186 13.3503 13.6098 13.0622C13.408 12.7668 13.3073 12.4391 13.3073 12.0789V10.3826C13.3073 10.0152 13.408 9.68028 13.6098 9.37774C13.8115 9.07521 14.0923 8.8375 14.4526 8.66462C14.8127 8.48455 15.2233 8.3945 15.6843 8.3945C16.1453 8.3945 16.5559 8.48455 16.916 8.66462C17.2762 8.8375 17.5571 9.07521 17.7588 9.37774C17.9677 9.68028 18.0721 10.0152 18.0721 10.3826V12.0789C18.0721 12.4391 17.9677 12.7668 17.7588 13.0622C17.5571 13.3503 17.2725 13.5772 16.9053 13.7429C16.545 13.9086 16.138 13.9914 15.6843 13.9914ZM15.6843 13.0622C16.0948 13.0622 16.419 12.9685 16.6567 12.7813C16.8944 12.5868 17.0133 12.331 17.0133 12.0141V10.4258C17.0133 10.0945 16.8908 9.82794 16.6459 9.62625C16.4082 9.42456 16.0877 9.32371 15.6843 9.32371C15.2809 9.32371 14.9568 9.42456 14.7118 9.62625C14.4741 9.82794 14.3553 10.0945 14.3553 10.4258V12.0141C14.3553 12.331 14.4741 12.5868 14.7118 12.7813C14.9495 12.9685 15.2737 13.0622 15.6843 13.0622Z" fill="black"/>
        <path d="M20.0031 7.34643H17.3776C17.3776 6.66933 17.6909 6.33078 18.3175 6.33078H23.774C23.774 6.66213 23.6947 6.91424 23.5363 7.08712C23.3778 7.26 23.1437 7.34643 22.834 7.34643H21.1593V13.073C21.1593 13.3683 21.0584 13.5952 20.8567 13.7537C20.6622 13.9121 20.3777 13.9914 20.0031 13.9914V7.34643Z" fill="black"/>
    </g>
    <path fill-rule="evenodd" clip-rule="evenodd" d="M15.862 2.25879C15.7111 2.42732 15.4522 2.44164 15.2836 2.29077C14.233 1.35026 12.8731 0.82916 11.463 0.826769C10.0529 0.824379 8.69126 1.34086 7.63746 2.2778C7.46842 2.42811 7.20954 2.41291 7.05923 2.24386C6.90893 2.07482 6.92413 1.81593 7.09318 1.66563C8.29728 0.595046 9.85319 0.00488908 11.4644 0.00762067C13.0756 0.0103523 14.6295 0.605781 15.83 1.68044C15.9985 1.83132 16.0128 2.09025 15.862 2.25879ZM14.694 3.70451C14.5393 3.8695 14.2801 3.8778 14.1151 3.72306C13.3955 3.04817 12.4464 2.67182 11.4599 2.67014C10.4734 2.66847 9.52301 3.04161 8.80115 3.71405C8.63563 3.86823 8.37647 3.85905 8.22228 3.69353C8.0681 3.52802 8.07729 3.26886 8.2428 3.11467C9.11663 2.30066 10.267 1.84897 11.4613 1.851C12.6555 1.85302 13.8044 2.30861 14.6755 3.12558C14.8404 3.28032 14.8488 3.53952 14.694 3.70451ZM13.394 4.9994C13.2435 5.16825 12.9846 5.18311 12.8158 5.03259C12.4415 4.69896 11.9579 4.51422 11.4565 4.51337C10.9551 4.51252 10.4709 4.69562 10.0955 5.02797C9.92615 5.17792 9.6673 5.16219 9.51735 4.99283C9.3674 4.82347 9.38313 4.56462 9.55249 4.41467C10.078 3.94937 10.756 3.69303 11.4579 3.69422C12.1598 3.69541 12.8369 3.95405 13.3609 4.42113C13.5297 4.57165 13.5446 4.83055 13.394 4.9994Z" fill="#2B4162"/>
    <defs>
        <clipPath id="clip0_132_430">
            <rect width="23.8298" height="7.84398" fill="white" transform="translate(0 6.15602)"/>
        </clipPath>
    </defs>
</svg>
