<svg width="55" height="32" viewBox="0 0 55 32" fill="none" xmlns="http://www.w3.org/2000/svg">
<g clip-path="url(#clip0_132_466)">
<path d="M1.92944 17.5562C1.43587 17.5562 1.01634 17.3999 0.670836 17.0874C0.325337 16.7748 0.152588 16.3799 0.152588 15.9028C0.152588 15.4257 0.325337 15.0308 0.670836 14.7182C1.01634 14.4056 1.43587 14.2493 1.92944 14.2493C2.423 14.2493 2.83432 14.4056 3.16336 14.7182C3.50886 15.0308 3.6816 15.4257 3.6816 15.9028C3.6816 16.3799 3.50886 16.7748 3.16336 17.0874C2.83432 17.3999 2.423 17.5562 1.92944 17.5562ZM0.695514 20.8632C0.695514 20.2709 0.892943 19.8431 1.2878 19.5799C1.69911 19.3166 2.31607 19.185 3.13868 19.185V30.2904C3.13868 30.8662 2.93304 31.2939 2.52172 31.5736C2.12687 31.8369 1.51813 31.9685 0.695514 31.9685V20.8632Z" fill="black"/>
<path d="M8.30611 31.7464C7.9277 31.7464 7.60689 31.6312 7.34364 31.4009C7.08042 31.1541 6.94879 30.858 6.94879 30.5124V15.7054C6.94879 15.3434 7.07218 15.0473 7.31897 14.8169C7.58222 14.5866 7.91126 14.4714 8.30611 14.4714H13.9822C15.3971 14.4714 16.6475 14.7429 17.7333 15.2858C18.8356 15.8123 19.6829 16.5609 20.2752 17.5316C20.8839 18.5022 21.1883 19.6128 21.1883 20.8632V25.3053C21.1883 26.5557 20.8839 27.6744 20.2752 28.6616C19.6664 29.6323 18.8109 30.3891 17.7086 30.932C16.6228 31.4749 15.3806 31.7464 13.9822 31.7464H8.30611ZM13.7354 29.4513C15.2655 29.4513 16.45 29.0975 17.2891 28.3901C18.1281 27.6662 18.5477 26.6462 18.5477 25.33V20.8138C18.5477 19.5305 18.1281 18.5352 17.2891 17.8277C16.45 17.1203 15.2655 16.7665 13.7354 16.7665H9.61409V29.4513H13.7354Z" fill="black"/>
<path d="M24.6499 16.347C24.6499 15.6725 24.8801 15.1542 25.3409 14.7923C25.8015 14.4303 26.4596 14.2493 27.3151 14.2493V29.8708C27.3151 30.5454 27.0846 31.0636 26.6241 31.4256C26.1635 31.7875 25.5053 31.9685 24.6499 31.9685V16.347Z" fill="black"/>
<path d="M35.9346 31.9685C34.8982 31.9685 33.9686 31.7793 33.1459 31.4008C32.3233 31.0225 31.6734 30.5042 31.1964 29.8461C30.7356 29.1716 30.5054 28.423 30.5054 27.6004V23.7258C30.5054 22.8868 30.7356 22.1218 31.1964 21.4307C31.657 20.7398 32.2986 20.1968 33.1214 19.802C33.9439 19.3907 34.8817 19.185 35.9346 19.185C36.9876 19.185 37.9253 19.3907 38.7479 19.802C39.5706 20.1968 40.2122 20.7398 40.6728 21.4307C41.15 22.1218 41.3885 22.8868 41.3885 23.7258V27.6004C41.3885 28.423 41.15 29.1716 40.6728 29.8461C40.2122 30.5042 39.5623 31.0225 38.7234 31.4008C37.9006 31.7793 36.971 31.9685 35.9346 31.9685ZM35.9346 29.8461C36.8724 29.8461 37.6128 29.6322 38.1557 29.2045C38.6987 28.7602 38.9701 28.1762 38.9701 27.4523V23.8246C38.9701 23.0678 38.6903 22.459 38.131 21.9984C37.5881 21.5377 36.856 21.3074 35.9346 21.3074C35.0132 21.3074 34.273 21.5377 33.7135 21.9984C33.1706 22.459 32.8991 23.0678 32.8991 23.8246V27.4523C32.8991 28.1762 33.1706 28.7602 33.7135 29.2045C34.2564 29.6322 34.9969 29.8461 35.9346 29.8461Z" fill="black"/>
<path d="M45.7991 16.7912H39.8022C39.8022 15.2447 40.518 14.4714 41.9492 14.4714H54.4119C54.4119 15.2282 54.2309 15.8041 53.8689 16.1989C53.507 16.5938 52.9722 16.7912 52.2649 16.7912H48.4397V29.8708C48.4397 30.5454 48.2093 31.0636 47.7487 31.4256C47.3045 31.7875 46.6547 31.9685 45.7991 31.9685V16.7912Z" fill="black"/>
</g>
<path fill-rule="evenodd" clip-rule="evenodd" d="M36.3404 5.17092C35.9958 5.55586 35.4044 5.58856 35.0195 5.24396C32.6198 3.09581 29.5138 1.90561 26.2931 1.90015C23.0724 1.89469 19.9623 3.07435 17.5554 5.21436C17.1693 5.55765 16.578 5.52294 16.2347 5.13683C15.8914 4.75073 15.9261 4.15943 16.3122 3.81614C19.0624 1.37088 22.6162 0.0229461 26.2963 0.0291852C29.9763 0.0354242 33.5255 1.3954 36.2674 3.84997C36.6523 4.19457 36.685 4.78598 36.3404 5.17092ZM33.6728 8.47299C33.3193 8.84983 32.7273 8.8688 32.3505 8.51536C30.7069 6.9739 28.5392 6.11429 26.2859 6.11047C24.0327 6.10665 21.862 6.9589 20.2133 8.49479C19.8352 8.84695 19.2433 8.82597 18.8911 8.44793C18.539 8.06989 18.56 7.47795 18.938 7.12579C20.9339 5.26656 23.5615 4.23489 26.2891 4.23951C29.0168 4.24414 31.6409 5.28471 33.6304 7.15069C34.0072 7.50413 34.0262 8.09614 33.6728 8.47299ZM30.7036 11.4306C30.3598 11.8162 29.7685 11.8502 29.3828 11.5064C28.528 10.7443 27.4234 10.3224 26.2782 10.3204C25.1331 10.3185 24.027 10.7367 23.1696 11.4958C22.7828 11.8383 22.1916 11.8024 21.8491 11.4156C21.5066 11.0287 21.5426 10.4375 21.9294 10.095C23.1297 9.03227 24.6782 8.44677 26.2814 8.44949C27.8846 8.4522 29.4311 9.04295 30.6278 10.1098C31.0135 10.4536 31.0474 11.0449 30.7036 11.4306Z" fill="#2B4162"/>
<defs>
<clipPath id="clip0_132_466">
<rect width="54.428" height="17.9159" fill="white" transform="translate(0.111267 14.0723)"/>
</clipPath>
</defs>
</svg>
