<svg width="12" height="13" viewBox="0 0 12 13" fill="none" xmlns="http://www.w3.org/2000/svg">
<path d="M6 0.5C4.81331 0.5 3.65328 0.851894 2.66658 1.51118C1.67989 2.17047 0.910851 3.10754 0.456725 4.2039C0.00259971 5.30025 -0.11622 6.50666 0.115291 7.67054C0.346802 8.83443 0.918247 9.90352 1.75736 10.7426C2.59648 11.5818 3.66557 12.1532 4.82946 12.3847C5.99335 12.6162 7.19975 12.4974 8.2961 12.0433C9.39246 11.5891 10.3295 10.8201 10.9888 9.83342C11.6481 8.84672 12 7.68669 12 6.5C11.9983 4.90922 11.3656 3.38407 10.2408 2.25921C9.11593 1.13436 7.59078 0.50168 6 0.5ZM6 11.5769C4.99588 11.5769 4.01431 11.2792 3.17941 10.7213C2.34452 10.1634 1.6938 9.37054 1.30954 8.44285C0.925277 7.51517 0.824737 6.49437 1.02063 5.50954C1.21653 4.52471 1.70006 3.62009 2.41008 2.91007C3.1201 2.20005 4.02472 1.71652 5.00954 1.52063C5.99437 1.32473 7.01517 1.42527 7.94286 1.80953C8.87054 2.19379 9.66345 2.84452 10.2213 3.67941C10.7792 4.51431 11.0769 5.49588 11.0769 6.5C11.0754 7.84601 10.54 9.13646 9.58824 10.0882C8.63646 11.04 7.34602 11.5754 6 11.5769ZM5.07692 4.65385V8.34615C5.07692 8.46856 5.0283 8.58595 4.94174 8.67251C4.85519 8.75906 4.73779 8.80769 4.61539 8.80769C4.49298 8.80769 4.37558 8.75906 4.28903 8.67251C4.20247 8.58595 4.15385 8.46856 4.15385 8.34615V4.65385C4.15385 4.53144 4.20247 4.41404 4.28903 4.32749C4.37558 4.24093 4.49298 4.19231 4.61539 4.19231C4.73779 4.19231 4.85519 4.24093 4.94174 4.32749C5.0283 4.41404 5.07692 4.53144 5.07692 4.65385ZM7.84616 4.65385V8.34615C7.84616 8.46856 7.79753 8.58595 7.71097 8.67251C7.62442 8.75906 7.50702 8.80769 7.38462 8.80769C7.26221 8.80769 7.14481 8.75906 7.05826 8.67251C6.9717 8.58595 6.92308 8.46856 6.92308 8.34615V4.65385C6.92308 4.53144 6.9717 4.41404 7.05826 4.32749C7.14481 4.24093 7.26221 4.19231 7.38462 4.19231C7.50702 4.19231 7.62442 4.24093 7.71097 4.32749C7.79753 4.41404 7.84616 4.53144 7.84616 4.65385Z" fill="black"/>
</svg>
