<svg width="12" height="12" viewBox="0 0 12 12" fill="none" xmlns="http://www.w3.org/2000/svg">
<path d="M11.7193 2.96209L9.03791 0.281258C8.94877 0.19209 8.84293 0.121356 8.72644 0.0730975C8.60995 0.0248387 8.4851 0 8.35901 0C8.23292 0 8.10806 0.0248387 7.99157 0.0730975C7.87509 0.121356 7.76925 0.19209 7.6801 0.281258L0.281408 7.67995C0.191875 7.76877 0.12089 7.8745 0.0725812 7.991C0.024272 8.1075 -0.000398068 8.23244 4.85703e-06 8.35856V11.04C4.85703e-06 11.2946 0.101149 11.5388 0.281186 11.7188C0.461223 11.8989 0.705405 12 0.960016 12H11.0401C11.1674 12 11.2895 11.9494 11.3796 11.8594C11.4696 11.7694 11.5201 11.6473 11.5201 11.52C11.5201 11.3927 11.4696 11.2706 11.3796 11.1806C11.2895 11.0906 11.1674 11.04 11.0401 11.04H4.99927L11.7193 4.31991C11.8085 4.23076 11.8792 4.12492 11.9275 4.00843C11.9758 3.89194 12.0006 3.76709 12.0006 3.641C12.0006 3.51491 11.9758 3.39006 11.9275 3.27357C11.8792 3.15708 11.8085 3.05124 11.7193 2.96209ZM3.64145 11.04H0.960016V8.35856L6.24008 3.07849L8.92151 5.75992L3.64145 11.04ZM9.60012 5.08132L6.91929 2.39988L8.35931 0.959867L11.0401 3.6413L9.60012 5.08132Z" fill="black"/>
</svg>
