<svg width="24" height="25" viewBox="0 0 24 25" fill="none" xmlns="http://www.w3.org/2000/svg">
<path d="M12 0.5C9.62663 0.5 7.30655 1.20379 5.33316 2.52236C3.35977 3.84094 1.8217 5.71508 0.913451 7.9078C0.00519941 10.1005 -0.232441 12.5133 0.230582 14.8411C0.693605 17.1689 1.83649 19.307 3.51472 20.9853C5.19295 22.6635 7.33115 23.8064 9.65892 24.2694C11.9867 24.7324 14.3995 24.4948 16.5922 23.5865C18.7849 22.6783 20.6591 21.1402 21.9776 19.1668C23.2962 17.1934 24 14.8734 24 12.5C23.9966 9.31843 22.7313 6.26814 20.4816 4.01843C18.2319 1.76872 15.1816 0.50336 12 0.5ZM12 22.6538C9.99176 22.6538 8.02862 22.0583 6.35883 20.9426C4.68904 19.8269 3.38759 18.2411 2.61907 16.3857C1.85055 14.5303 1.64947 12.4887 2.04126 10.5191C2.43305 8.54943 3.40011 6.74019 4.82015 5.32015C6.24019 3.90011 8.04943 2.93305 10.0191 2.54126C11.9887 2.14947 14.0303 2.35055 15.8857 3.11907C17.7411 3.88759 19.3269 5.18903 20.4426 6.85882C21.5583 8.52861 22.1538 10.4918 22.1538 12.5C22.1508 15.192 21.08 17.7729 19.1765 19.6765C17.2729 21.58 14.692 22.6508 12 22.6538ZM16.2046 11.7315L10.6662 8.03923C10.5271 7.94646 10.3655 7.89318 10.1985 7.8851C10.0316 7.87701 9.86554 7.91441 9.71817 7.9933C9.5708 8.0722 9.44763 8.18963 9.36179 8.33306C9.27595 8.47649 9.23066 8.64054 9.23077 8.80769V16.1923C9.23066 16.3595 9.27595 16.5235 9.36179 16.6669C9.44763 16.8104 9.5708 16.9278 9.71817 17.0067C9.86554 17.0856 10.0316 17.123 10.1985 17.1149C10.3655 17.1068 10.5271 17.0535 10.6662 16.9608L16.2046 13.2685C16.3312 13.1842 16.4351 13.07 16.5069 12.9359C16.5787 12.8018 16.6163 12.6521 16.6163 12.5C16.6163 12.3479 16.5787 12.1982 16.5069 12.0641C16.4351 11.93 16.3312 11.8158 16.2046 11.7315ZM11.0769 14.4673V10.5385L14.0285 12.5L11.0769 14.4673Z" fill="#808080"/>
</svg>
