<svg width="18" height="20" viewBox="0 0 18 20" fill="none" xmlns="http://www.w3.org/2000/svg">
<path d="M14.1751 12.7166C13.983 13.7895 13.4668 14.7778 12.696 15.5484C11.9252 16.319 10.9368 16.835 9.86391 17.0268C9.82318 17.0334 9.78201 17.0368 9.74076 17.037C9.55495 17.037 9.37595 16.9671 9.23925 16.8412C9.10255 16.7154 9.01813 16.5428 9.00275 16.3576C8.98737 16.1724 9.04214 15.9882 9.1562 15.8415C9.27026 15.6949 9.43528 15.5964 9.61854 15.5657C11.1528 15.3074 12.4547 14.0055 12.7149 12.4685C12.7478 12.2747 12.8563 12.102 13.0166 11.9882C13.1768 11.8745 13.3757 11.8291 13.5695 11.862C13.7633 11.8949 13.936 12.0034 14.0497 12.1637C14.1635 12.324 14.2089 12.5229 14.176 12.7166H14.1751ZM17.1482 11.8518C17.1482 14.0128 16.2898 16.0854 14.7617 17.6134C13.2336 19.1415 11.1611 20 9.00002 20C6.83898 20 4.76645 19.1415 3.23836 17.6134C1.71028 16.0854 0.851807 14.0128 0.851807 11.8518C0.851807 9.26659 1.87033 6.62305 3.8759 3.99525C3.93939 3.91204 4.01978 3.84323 4.11179 3.79335C4.2038 3.74348 4.30534 3.71366 4.40971 3.70587C4.51408 3.69809 4.61891 3.71251 4.71731 3.74818C4.8157 3.78386 4.90541 3.83998 4.98054 3.91284L7.21389 6.08045L9.25094 0.486891C9.29164 0.375329 9.35856 0.275186 9.44607 0.194906C9.53358 0.114626 9.6391 0.056561 9.75375 0.0256069C9.8684 -0.00534721 9.98881 -0.00828339 10.1048 0.017046C10.2209 0.0423754 10.3291 0.0952279 10.4204 0.171148C12.4454 1.85172 17.1482 6.34712 17.1482 11.8518ZM15.6667 11.8518C15.6667 7.58417 12.3528 3.89618 10.2769 2.00635L8.21482 7.66102C8.1725 7.77716 8.10179 7.88086 8.00913 7.96268C7.91647 8.04449 7.80481 8.10182 7.68432 8.12943C7.56384 8.15705 7.43835 8.15407 7.31931 8.12077C7.20027 8.08747 7.09145 8.02492 7.00278 7.9388L4.56109 5.57026C3.08238 7.70454 2.3333 9.81474 2.3333 11.8518C2.3333 13.6199 3.03568 15.3156 4.28594 16.5659C5.53619 17.8161 7.23189 18.5185 9.00002 18.5185C10.7681 18.5185 12.4638 17.8161 13.7141 16.5659C14.9643 15.3156 15.6667 13.6199 15.6667 11.8518Z" fill="white"/>
</svg>
