<svg width="10" height="13" viewBox="0 0 10 13" fill="none" xmlns="http://www.w3.org/2000/svg">
<path d="M8.10503 8.12997C7.98979 8.7737 7.68008 9.36666 7.21761 9.82904C6.75513 10.2914 6.1621 10.601 5.51835 10.7161C5.49391 10.72 5.46921 10.7221 5.44446 10.7222C5.33297 10.7222 5.22557 10.6803 5.14355 10.6047C5.06153 10.5292 5.01088 10.4257 5.00165 10.3146C4.99242 10.2035 5.02528 10.0929 5.09372 10.0049C5.16216 9.91692 5.26117 9.85785 5.37112 9.83943C6.29169 9.68442 7.0728 8.90331 7.22892 7.98108C7.24866 7.86482 7.31378 7.76117 7.40994 7.69293C7.50611 7.62469 7.62544 7.59744 7.7417 7.61719C7.85795 7.63693 7.9616 7.70205 8.02984 7.79821C8.09809 7.89438 8.12533 8.01371 8.10559 8.12997H8.10503ZM9.88894 7.61107C9.88894 8.9077 9.37385 10.1512 8.457 11.0681C7.54015 11.9849 6.29663 12.5 5.00001 12.5C3.70339 12.5 2.45987 11.9849 1.54302 11.0681C0.626166 10.1512 0.111084 8.9077 0.111084 7.61107C0.111084 6.05995 0.7222 4.47383 1.92554 2.89715C1.96363 2.84723 2.01187 2.80594 2.06708 2.77601C2.12228 2.74609 2.1832 2.7282 2.24583 2.72353C2.30845 2.71885 2.37135 2.7275 2.43038 2.74891C2.48942 2.77031 2.54325 2.80399 2.58832 2.84771L3.92833 4.14827L5.15057 0.792134C5.17498 0.725197 5.21514 0.665112 5.26764 0.616944C5.32015 0.568775 5.38346 0.533937 5.45225 0.515364C5.52104 0.496792 5.59329 0.49503 5.6629 0.510228C5.73251 0.525425 5.79745 0.557137 5.85224 0.602689C7.06725 1.61103 9.88894 4.30827 9.88894 7.61107ZM9.00004 7.61107C9.00004 5.0505 7.01169 2.83771 5.76613 1.70381L4.52889 5.09661C4.5035 5.1663 4.46107 5.22852 4.40548 5.27761C4.34988 5.3267 4.28289 5.36109 4.21059 5.37766C4.1383 5.39423 4.06301 5.39244 3.99159 5.37246C3.92016 5.35248 3.85487 5.31495 3.80167 5.26328L2.33666 3.84216C1.44943 5.12272 0.99998 6.38884 0.99998 7.61107C0.99998 8.67195 1.42141 9.68937 2.17156 10.4395C2.92171 11.1897 3.93914 11.6111 5.00001 11.6111C6.06088 11.6111 7.07831 11.1897 7.82846 10.4395C8.57861 9.68937 9.00004 8.67195 9.00004 7.61107Z" fill="#C33E22"/>
</svg>
