<svg width="10" height="12" viewBox="0 0 10 12" fill="none" xmlns="http://www.w3.org/2000/svg">
<path d="M8.10503 7.62997C7.98979 8.2737 7.68008 8.86666 7.21761 9.32904C6.75513 9.79141 6.1621 10.101 5.51835 10.2161C5.49391 10.22 5.46921 10.2221 5.44446 10.2222C5.33297 10.2222 5.22557 10.1803 5.14355 10.1047C5.06153 10.0292 5.01088 9.92566 5.00165 9.81456C4.99242 9.70345 5.02528 9.59294 5.09372 9.50493C5.16216 9.41692 5.26117 9.35785 5.37112 9.33943C6.29169 9.18442 7.0728 8.40331 7.22892 7.48108C7.24866 7.36482 7.31378 7.26117 7.40994 7.19293C7.50611 7.12469 7.62544 7.09744 7.7417 7.11719C7.85795 7.13693 7.9616 7.20205 8.02984 7.29821C8.09809 7.39438 8.12533 7.51371 8.10559 7.62997H8.10503ZM9.88894 7.11107C9.88894 8.4077 9.37385 9.65122 8.457 10.5681C7.54015 11.4849 6.29663 12 5.00001 12C3.70339 12 2.45987 11.4849 1.54302 10.5681C0.626166 9.65122 0.111084 8.4077 0.111084 7.11107C0.111084 5.55995 0.7222 3.97383 1.92554 2.39715C1.96363 2.34723 2.01187 2.30594 2.06708 2.27601C2.12228 2.24609 2.1832 2.2282 2.24583 2.22353C2.30845 2.21885 2.37135 2.2275 2.43038 2.24891C2.48942 2.27031 2.54325 2.30399 2.58832 2.34771L3.92833 3.64827L5.15057 0.292134C5.17498 0.225197 5.21514 0.165112 5.26764 0.116944C5.32015 0.0687755 5.38346 0.0339366 5.45225 0.0153641C5.52104 -0.00320833 5.59329 -0.00497003 5.6629 0.0102276C5.73251 0.0254253 5.79745 0.0571368 5.85224 0.102689C7.06725 1.11103 9.88894 3.80827 9.88894 7.11107ZM9.00004 7.11107C9.00004 4.5505 7.01169 2.33771 5.76613 1.20381L4.52889 4.59661C4.5035 4.6663 4.46107 4.72852 4.40548 4.77761C4.34988 4.8267 4.28289 4.86109 4.21059 4.87766C4.1383 4.89423 4.06301 4.89244 3.99159 4.87246C3.92016 4.85248 3.85487 4.81495 3.80167 4.76328L2.33666 3.34216C1.44943 4.62272 0.99998 5.88884 0.99998 7.11107C0.99998 8.17195 1.42141 9.18937 2.17156 9.93952C2.92171 10.6897 3.93914 11.1111 5.00001 11.1111C6.06088 11.1111 7.07831 10.6897 7.82846 9.93952C8.57861 9.18937 9.00004 8.17195 9.00004 7.11107Z" fill="black"/>
</svg>
