<svg width="12" height="12" viewBox="0 0 12 12" fill="none" xmlns="http://www.w3.org/2000/svg">
<path d="M11.9075 11.4606C11.9667 11.5199 12 11.6002 12 11.684C12 11.7678 11.9667 11.8482 11.9075 11.9075C11.8482 11.9667 11.7678 12 11.684 12C11.6002 12 11.5199 11.9667 11.4606 11.9075L6 6.44683L0.53937 11.9075C0.480117 11.9667 0.399752 12 0.315956 12C0.232159 12 0.151795 11.9667 0.0925414 11.9075C0.0332882 11.8482 1.65183e-09 11.7678 0 11.684C-1.65183e-09 11.6002 0.0332879 11.5199 0.0925411 11.4606L5.55317 6L0.0925411 0.53937C0.0332879 0.480117 0 0.399752 0 0.315956C0 0.232159 0.0332879 0.151794 0.0925411 0.0925411C0.151794 0.0332879 0.232159 0 0.315956 0C0.399752 0 0.480117 0.0332879 0.53937 0.0925411L6 5.55317L11.4606 0.0925411C11.49 0.0632019 11.5248 0.0399288 11.5631 0.0240506C11.6015 0.00817229 11.6426 8.17905e-10 11.684 0C11.7255 -8.17904e-10 11.7666 0.00817229 11.805 0.0240506C11.8433 0.0399288 11.8781 0.0632019 11.9075 0.0925411C11.9368 0.12188 11.9601 0.156711 11.9759 0.195045C11.9918 0.233378 12 0.274464 12 0.315956C12 0.357448 11.9918 0.398533 11.9759 0.436867C11.9601 0.4752 11.9368 0.510031 11.9075 0.53937L6.44683 6L11.9075 11.4606Z" fill="#C33E22"/>
</svg>
